<svg width="84" height="68" viewBox="0 0 84 68" fill="none" xmlns="http://www.w3.org/2000/svg">
<path d="M82 40V22C82 20.9391 81.5786 19.9217 80.8284 19.1716C80.0783 18.4214 79.0609 18 78 18H6C4.93913 18 3.92172 18.4214 3.17157 19.1716C2.42143 19.9217 2 20.9391 2 22V40M46 32C46 33.1046 45.1046 34 44 34C42.8954 34 42 33.1046 42 32C42 30.8954 42.8954 30 44 30C45.1046 30 46 30.8954 46 32ZM22 14C22 10.8174 23.2643 7.76516 25.5147 5.51472C27.7652 3.26428 30.8174 2 34 2H52C55.1826 2 58.2348 3.26428 60.4853 5.51472C62.7357 7.76516 64 10.8174 64 14V18H22V14ZM2 36L41.03 45.758C41.666 45.918 42.334 45.918 42.97 45.758L82 36V62C82 63.0609 81.5786 64.0783 80.8284 64.8284C80.0783 65.5786 79.0609 66 78 66H6C4.93913 66 3.92172 65.5786 3.17157 64.8284C2.42143 64.0783 2 63.0609 2 62V36Z" stroke="white" stroke-width="4" stroke-linecap="round" stroke-linejoin="round"/>
</svg>
