<svg width="72" height="64" viewBox="0 0 72 64" fill="none" xmlns="http://www.w3.org/2000/svg">
<path d="M35.8465 0L71.5883 23.2329L66.0466 26.8358V45.883H60.0066V30.7618L56.9866 32.7248V50.413C56.9866 54.8524 53.9243 58.3103 50.1825 60.4968C46.3622 62.7225 41.2886 64 35.8465 64C30.4045 64 25.3278 62.7225 21.5105 60.4968C17.7657 58.3103 14.7065 54.8494 14.7065 50.41V32.7248L0.104736 23.2329L35.8465 0ZM20.7465 36.6508V50.413C20.7465 51.8112 21.7431 53.6353 24.5547 55.2752C27.2969 56.8758 31.2803 57.963 35.8465 57.963C40.4128 57.963 44.3962 56.8758 47.1383 55.2752C49.953 53.6353 50.9435 51.8112 50.9435 50.413V36.6508L35.8435 46.4658L20.7465 36.6508ZM60.5049 23.2329L35.8465 7.20574L11.1882 23.2329L35.8465 39.2601L60.5049 23.2329Z" fill="#D9D9D9"/>
</svg>
